<svg width="188" height="285" viewBox="0 0 188 285" fill="none" xmlns="http://www.w3.org/2000/svg">
<g filter="url(#filter0_d_87_1373)">
<g filter="url(#filter1_i_87_1373)">
<path d="M126.469 137.525C127.743 133.667 129.282 131.164 130.452 131.392C132.082 131.71 132.395 137.21 131.193 143.801L131.264 143.895C135.925 139.151 140.556 136.271 141.749 137.418C142.962 138.584 140.17 143.476 135.495 148.421C141.756 147.542 146.829 148.03 147.092 149.607C147.321 150.978 143.845 152.749 138.856 153.982L139.728 155.139C145.355 157.633 149.266 160.612 148.68 162.068C148.412 162.732 147.253 162.972 145.522 162.838L153.661 173.651L142.247 248.437L33.6611 233.48L40.8564 172.71C40.5958 172.309 40.4573 171.944 40.4961 171.657C40.5638 171.162 40.8446 170.834 41.1016 170.633L41.1279 170.416C40.8478 170.412 40.46 170.349 40.0459 170.097C39.2354 169.605 38.4935 166.666 38.7598 164.933C39.0262 163.2 39.8257 162.235 40.3799 162.235C40.9341 162.235 41.2529 162.22 41.2529 162.22C41.2529 162.22 40.6816 161.854 40.6016 161.534C40.5215 161.214 40.0012 158.523 40.9434 156.709C41.8855 154.895 43.7253 154.495 44.2969 154.594C44.8628 154.694 45.5556 155.06 45.5664 155.066C45.5598 155.057 45.0023 154.261 44.9678 153.824C44.9333 153.384 45.5818 152.4 46.3193 152.066C47.0569 151.732 48.5823 151.277 49.1963 151.645C49.8103 152.015 50.0732 152.77 50.0732 152.77C50.0732 152.77 50.0694 151.992 50.5537 151.184C51.038 150.376 53.5008 148.979 55.4551 149.67C55.6649 149.745 55.8998 149.835 56.1533 149.938L61.376 144.705C58.8076 144.871 56.7447 142.011 56.6064 140.74C56.4687 139.461 58.8028 135.303 60.6406 135.022C61.1482 134.944 61.9502 135.002 62.8506 135.182C62.6744 134.867 62.5249 134.562 62.4023 134.281C61.3639 131.895 63.4063 128.974 64.5674 128.424C65.7285 127.875 70.4121 128.728 71.2783 130.377C71.5822 130.957 71.8365 132.057 71.9297 133.291C72.4757 132.591 73.0102 132.038 73.4062 131.759C73.7332 131.53 74.1735 131.415 74.667 131.386L101.563 104.437L126.469 137.525Z" fill="#FFFEF0"/>
</g>
<g opacity="0.8" filter="url(#filter2_d_87_1373)">
<path d="M66.7943 116.514C67.8234 116.166 68.1135 116.674 69.3762 115.495C72.7049 112.391 71.1401 108.434 69.8505 105.372C68.8724 103.049 67.9469 106.644 67.5838 107.304C66.58 109.13 64.9829 109.866 64.2808 112.332C63.9374 113.54 64.2798 116.241 65.053 117.075C65.678 117.746 66.2552 116.695 66.7921 116.514L66.7943 116.514Z" fill="#FFF255"/>
</g>
<g opacity="0.8" filter="url(#filter3_d_87_1373)">
<path d="M44.2914 147.716C41.9185 148.046 41.9958 148.758 38.1603 148.397C28.0532 147.45 26.1443 142.374 24.8155 138.393C23.8065 135.373 29.9763 138.422 31.4739 138.853C35.6152 140.045 39.5385 139.732 43.8977 141.778C46.0316 142.78 48.7069 145.762 48.271 147.127C47.9159 148.228 45.5324 147.541 44.2949 147.714L44.2914 147.716Z" fill="#FFF255"/>
</g>
<g opacity="0.8" filter="url(#filter4_d_87_1373)">
<path d="M134.01 115.898C136.119 114.799 136.917 115.802 139.254 112.828C145.417 104.997 140.711 96.9636 136.899 90.7731C134.007 86.0758 133.206 94.1628 132.641 95.7121C131.08 99.997 127.871 102.126 127.176 107.696C126.837 110.423 128.48 116.151 130.431 117.695C132.007 118.938 132.904 116.47 134.005 115.898L134.01 115.898Z" fill="#FFF255"/>
</g>
<g opacity="0.8" filter="url(#filter5_d_87_1373)">
<path d="M132.151 166.894C135.298 167.912 135.021 169.074 140.324 169.24C154.296 169.685 158.115 161.672 160.881 155.354C162.98 150.561 153.856 154.374 151.716 154.789C145.797 155.936 140.537 154.638 134.117 157.154C130.973 158.387 126.617 162.786 126.881 165.129C127.099 167.02 130.505 166.358 132.146 166.89L132.151 166.894Z" fill="#FFF255"/>
</g>
<g opacity="0.8" filter="url(#filter6_d_87_1373)">
<path d="M147.888 129.086C147.172 128.713 146.902 129.053 146.109 128.044C144.018 125.388 145.615 122.663 146.908 120.563C147.889 118.97 148.161 121.713 148.352 122.238C148.882 123.692 149.97 124.414 150.206 126.303C150.321 127.228 149.764 129.172 149.102 129.695C148.567 130.117 148.263 129.28 147.89 129.086L147.888 129.086Z" fill="#FFF255"/>
</g>
<g opacity="0.8" filter="url(#filter7_d_87_1373)">
<path d="M90.6816 182.923C89.6733 185.616 90.9749 186.413 87.7747 189.671C79.3472 198.261 69.1573 193.894 61.2787 190.306C55.3007 187.585 64.7826 185.363 66.5415 184.446C71.4063 181.909 73.4821 177.742 79.9925 176.04C83.1805 175.208 90.2071 176.275 92.3117 178.365C94.0072 180.054 91.2055 181.513 90.6806 182.918L90.6816 182.923Z" fill="#FFF255"/>
</g>
<g opacity="0.8" filter="url(#filter8_d_87_1373)">
<path d="M76.4835 161.986C76.8764 159.671 76.0868 159.481 77.6835 156.07C81.8877 147.08 87.9458 147.186 92.6437 147.424C96.2083 147.604 90.9864 152.182 90.0511 153.407C87.4643 156.794 86.5643 160.534 82.9905 163.808C81.2404 165.411 77.1914 166.784 75.8616 165.879C74.79 165.146 76.28 163.196 76.4844 161.989L76.4835 161.986Z" fill="#FFF255"/>
</g>
<g opacity="0.8" filter="url(#filter9_d_87_1373)">
<path d="M47.6685 104.396C44.8864 105.103 44.977 106.629 40.4803 105.856C28.6306 103.826 26.3926 92.9493 24.8346 84.4195C23.6517 77.948 30.8852 84.4805 32.641 85.4039C37.4963 87.9583 42.096 87.2872 47.2069 91.6721C49.7087 93.8198 52.8452 100.21 52.3341 103.135C51.9179 105.494 49.1234 104.021 47.6726 104.392L47.6685 104.396Z" fill="#FFF255"/>
</g>
<g opacity="0.8" filter="url(#filter10_d_87_1373)">
<path d="M166.581 136.125C168.136 136.527 168.085 137.391 170.598 136.953C177.22 135.803 178.471 129.639 179.341 124.806C180.002 121.138 175.96 124.84 174.979 125.363C172.266 126.811 169.695 126.431 166.839 128.915C165.441 130.132 163.688 133.754 163.974 135.411C164.207 136.748 165.768 135.913 166.579 136.123L166.581 136.125Z" fill="#FFF255"/>
</g>
</g>
<defs>
<filter id="filter0_d_87_1373" x="-56.8869" y="0" width="317.892" height="330.029" filterUnits="userSpaceOnUse" color-interpolation-filters="sRGB">
<feFlood flood-opacity="0" result="BackgroundImageFix"/>
<feColorMatrix in="SourceAlpha" type="matrix" values="0 0 0 0 0 0 0 0 0 0 0 0 0 0 0 0 0 0 127 0" result="hardAlpha"/>
<feOffset/>
<feGaussianBlur stdDeviation="40.7957"/>
<feComposite in2="hardAlpha" operator="out"/>
<feColorMatrix type="matrix" values="0 0 0 0 0.0705882 0 0 0 0 0.0705882 0 0 0 0 0.0705882 0 0 0 1 0"/>
<feBlend mode="normal" in2="BackgroundImageFix" result="effect1_dropShadow_87_1373"/>
<feBlend mode="normal" in="SourceGraphic" in2="effect1_dropShadow_87_1373" result="shape"/>
</filter>
<filter id="filter1_i_87_1373" x="33.6611" y="104.437" width="120" height="144" filterUnits="userSpaceOnUse" color-interpolation-filters="sRGB">
<feFlood flood-opacity="0" result="BackgroundImageFix"/>
<feBlend mode="normal" in="SourceGraphic" in2="BackgroundImageFix" result="shape"/>
<feColorMatrix in="SourceAlpha" type="matrix" values="0 0 0 0 0 0 0 0 0 0 0 0 0 0 0 0 0 0 127 0" result="hardAlpha"/>
<feOffset/>
<feGaussianBlur stdDeviation="12.2387"/>
<feComposite in2="hardAlpha" operator="arithmetic" k2="-1" k3="1"/>
<feColorMatrix type="matrix" values="0 0 0 0 0.8 0 0 0 0 0.666667 0 0 0 0 0 0 0 0 1 0"/>
<feBlend mode="normal" in2="shape" result="effect1_innerShadow_87_1373"/>
</filter>
<filter id="filter2_d_87_1373" x="0.897022" y="41.3494" width="133.722" height="139.198" filterUnits="userSpaceOnUse" color-interpolation-filters="sRGB">
<feFlood flood-opacity="0" result="BackgroundImageFix"/>
<feColorMatrix in="SourceAlpha" type="matrix" values="0 0 0 0 0 0 0 0 0 0 0 0 0 0 0 0 0 0 127 0" result="hardAlpha"/>
<feOffset/>
<feGaussianBlur stdDeviation="31.6252"/>
<feColorMatrix type="matrix" values="0 0 0 0 1 0 0 0 0 0.992157 0 0 0 0 0.643137 0 0 0 1 0"/>
<feBlend mode="normal" in2="BackgroundImageFix" result="effect1_dropShadow_87_1373"/>
<feBlend mode="normal" in="SourceGraphic" in2="effect1_dropShadow_87_1373" result="shape"/>
</filter>
<filter id="filter3_d_87_1373" x="-38.5458" y="73.8232" width="150.114" height="137.924" filterUnits="userSpaceOnUse" color-interpolation-filters="sRGB">
<feFlood flood-opacity="0" result="BackgroundImageFix"/>
<feColorMatrix in="SourceAlpha" type="matrix" values="0 0 0 0 0 0 0 0 0 0 0 0 0 0 0 0 0 0 127 0" result="hardAlpha"/>
<feOffset/>
<feGaussianBlur stdDeviation="31.6252"/>
<feColorMatrix type="matrix" values="0 0 0 0 1 0 0 0 0 0.992157 0 0 0 0 0.643137 0 0 0 1 0"/>
<feBlend mode="normal" in2="BackgroundImageFix" result="effect1_dropShadow_87_1373"/>
<feBlend mode="normal" in="SourceGraphic" in2="effect1_dropShadow_87_1373" result="shape"/>
</filter>
<filter id="filter4_d_87_1373" x="63.8812" y="26.073" width="141.605" height="155.218" filterUnits="userSpaceOnUse" color-interpolation-filters="sRGB">
<feFlood flood-opacity="0" result="BackgroundImageFix"/>
<feColorMatrix in="SourceAlpha" type="matrix" values="0 0 0 0 0 0 0 0 0 0 0 0 0 0 0 0 0 0 127 0" result="hardAlpha"/>
<feOffset/>
<feGaussianBlur stdDeviation="31.6252"/>
<feColorMatrix type="matrix" values="0 0 0 0 1 0 0 0 0 0.992157 0 0 0 0 0.643137 0 0 0 1 0"/>
<feBlend mode="normal" in2="BackgroundImageFix" result="effect1_dropShadow_87_1373"/>
<feBlend mode="normal" in="SourceGraphic" in2="effect1_dropShadow_87_1373" result="shape"/>
</filter>
<filter id="filter5_d_87_1373" x="63.6192" y="89.7091" width="160.823" height="142.799" filterUnits="userSpaceOnUse" color-interpolation-filters="sRGB">
<feFlood flood-opacity="0" result="BackgroundImageFix"/>
<feColorMatrix in="SourceAlpha" type="matrix" values="0 0 0 0 0 0 0 0 0 0 0 0 0 0 0 0 0 0 127 0" result="hardAlpha"/>
<feOffset/>
<feGaussianBlur stdDeviation="31.6252"/>
<feColorMatrix type="matrix" values="0 0 0 0 1 0 0 0 0 0.992157 0 0 0 0 0.643137 0 0 0 1 0"/>
<feBlend mode="normal" in2="BackgroundImageFix" result="effect1_dropShadow_87_1373"/>
<feBlend mode="normal" in="SourceGraphic" in2="effect1_dropShadow_87_1373" result="shape"/>
</filter>
<filter id="filter6_d_87_1373" x="81.8472" y="56.8209" width="131.624" height="136.242" filterUnits="userSpaceOnUse" color-interpolation-filters="sRGB">
<feFlood flood-opacity="0" result="BackgroundImageFix"/>
<feColorMatrix in="SourceAlpha" type="matrix" values="0 0 0 0 0 0 0 0 0 0 0 0 0 0 0 0 0 0 127 0" result="hardAlpha"/>
<feOffset/>
<feGaussianBlur stdDeviation="31.6252"/>
<feColorMatrix type="matrix" values="0 0 0 0 1 0 0 0 0 0.992157 0 0 0 0 0.643137 0 0 0 1 0"/>
<feBlend mode="normal" in2="BackgroundImageFix" result="effect1_dropShadow_87_1373"/>
<feBlend mode="normal" in="SourceGraphic" in2="effect1_dropShadow_87_1373" result="shape"/>
</filter>
<filter id="filter7_d_87_1373" x="-3.92573" y="112.506" width="160.027" height="145.401" filterUnits="userSpaceOnUse" color-interpolation-filters="sRGB">
<feFlood flood-opacity="0" result="BackgroundImageFix"/>
<feColorMatrix in="SourceAlpha" type="matrix" values="0 0 0 0 0 0 0 0 0 0 0 0 0 0 0 0 0 0 127 0" result="hardAlpha"/>
<feOffset/>
<feGaussianBlur stdDeviation="31.6252"/>
<feColorMatrix type="matrix" values="0 0 0 0 1 0 0 0 0 0.992157 0 0 0 0 0.643137 0 0 0 1 0"/>
<feBlend mode="normal" in2="BackgroundImageFix" result="effect1_dropShadow_87_1373"/>
<feBlend mode="normal" in="SourceGraphic" in2="effect1_dropShadow_87_1373" result="shape"/>
</filter>
<filter id="filter8_d_87_1373" x="12.2273" y="84.1054" width="144.897" height="145.313" filterUnits="userSpaceOnUse" color-interpolation-filters="sRGB">
<feFlood flood-opacity="0" result="BackgroundImageFix"/>
<feColorMatrix in="SourceAlpha" type="matrix" values="0 0 0 0 0 0 0 0 0 0 0 0 0 0 0 0 0 0 127 0" result="hardAlpha"/>
<feOffset/>
<feGaussianBlur stdDeviation="31.6252"/>
<feColorMatrix type="matrix" values="0 0 0 0 1 0 0 0 0 0.992157 0 0 0 0 0.643137 0 0 0 1 0"/>
<feBlend mode="normal" in2="BackgroundImageFix" result="effect1_dropShadow_87_1373"/>
<feBlend mode="normal" in="SourceGraphic" in2="effect1_dropShadow_87_1373" result="shape"/>
</filter>
<filter id="filter9_d_87_1373" x="-38.5458" y="18.341" width="154.186" height="150.978" filterUnits="userSpaceOnUse" color-interpolation-filters="sRGB">
<feFlood flood-opacity="0" result="BackgroundImageFix"/>
<feColorMatrix in="SourceAlpha" type="matrix" values="0 0 0 0 0 0 0 0 0 0 0 0 0 0 0 0 0 0 127 0" result="hardAlpha"/>
<feOffset/>
<feGaussianBlur stdDeviation="31.6252"/>
<feColorMatrix type="matrix" values="0 0 0 0 1 0 0 0 0 0.992157 0 0 0 0 0.643137 0 0 0 1 0"/>
<feBlend mode="normal" in2="BackgroundImageFix" result="effect1_dropShadow_87_1373"/>
<feBlend mode="normal" in="SourceGraphic" in2="effect1_dropShadow_87_1373" result="shape"/>
</filter>
<filter id="filter10_d_87_1373" x="100.693" y="59.9527" width="141.972" height="140.371" filterUnits="userSpaceOnUse" color-interpolation-filters="sRGB">
<feFlood flood-opacity="0" result="BackgroundImageFix"/>
<feColorMatrix in="SourceAlpha" type="matrix" values="0 0 0 0 0 0 0 0 0 0 0 0 0 0 0 0 0 0 127 0" result="hardAlpha"/>
<feOffset/>
<feGaussianBlur stdDeviation="31.6252"/>
<feColorMatrix type="matrix" values="0 0 0 0 1 0 0 0 0 0.992157 0 0 0 0 0.643137 0 0 0 1 0"/>
<feBlend mode="normal" in2="BackgroundImageFix" result="effect1_dropShadow_87_1373"/>
<feBlend mode="normal" in="SourceGraphic" in2="effect1_dropShadow_87_1373" result="shape"/>
</filter>
</defs>
</svg>
